<mxfile host="65bd71144e">
    <diagram id="YQEeyEsAXImCTdxHAv1M" name="第 1 页">
        <mxGraphModel dx="870" dy="857" grid="0" gridSize="10" guides="1" tooltips="1" connect="1" arrows="1" fold="1" page="1" pageScale="1" pageWidth="2339" pageHeight="3300" background="#ffffff" math="0" shadow="0">
            <root>
                <mxCell id="0"/>
                <mxCell id="1" parent="0"/>
                <mxCell id="67" value="" style="rounded=1;whiteSpace=wrap;html=1;fontSize=16;fillColor=#E0D3C3;container=0;" parent="1" vertex="1">
                    <mxGeometry x="195.66" y="120" width="252.56" height="290" as="geometry"/>
                </mxCell>
                <mxCell id="80" value="DataBlock1&lt;br&gt;&quot;quick&quot; - &quot;quickly&quot;" style="rounded=1;whiteSpace=wrap;html=1;fontSize=16;fillColor=#D8B29C;fontColor=default;labelBackgroundColor=none;container=0;" parent="1" vertex="1">
                    <mxGeometry x="216.84947643979058" y="152" width="204.08115183246073" height="59" as="geometry"/>
                </mxCell>
                <mxCell id="92" value="DataBlock2&lt;br&gt;&quot;quiet&quot; - &quot;quilt&quot;" style="rounded=1;whiteSpace=wrap;html=1;fontSize=16;fillColor=#D8B29C;fontColor=default;labelBackgroundColor=none;container=0;" vertex="1" parent="1">
                    <mxGeometry x="219.90052356020942" y="231" width="204.08115183246073" height="59" as="geometry"/>
                </mxCell>
                <mxCell id="93" value="DataBlock3&lt;br&gt;&quot;quota&quot; - &quot;quorm&quot;" style="rounded=1;whiteSpace=wrap;html=1;fontSize=16;fillColor=#D8B29C;fontColor=default;labelBackgroundColor=none;container=0;" vertex="1" parent="1">
                    <mxGeometry x="216.68052356020945" y="312" width="204.08115183246073" height="59" as="geometry"/>
                </mxCell>
                <mxCell id="104" value="&lt;font color=&quot;#1a1a1a&quot; style=&quot;font-size: 24px;&quot;&gt;DataBlocks&lt;/font&gt;" style="text;html=1;strokeColor=none;fillColor=none;align=center;verticalAlign=middle;whiteSpace=wrap;rounded=0;" vertex="1" parent="1">
                    <mxGeometry x="257.41999999999996" y="60" width="129.04" height="34" as="geometry"/>
                </mxCell>
                <mxCell id="94" value="" style="rounded=1;whiteSpace=wrap;html=1;fontSize=16;fillColor=#BFD1E3;container=0;" vertex="1" parent="1">
                    <mxGeometry x="494.57" y="120" width="252.56" height="290" as="geometry"/>
                </mxCell>
                <mxCell id="90" value="quic" style="rounded=1;whiteSpace=wrap;html=1;fontSize=16;fillColor=#8D91AA;fontColor=default;labelBackgroundColor=none;container=0;" parent="1" vertex="1">
                    <mxGeometry x="529.9966492146597" y="152" width="181.7068062827225" height="59" as="geometry"/>
                </mxCell>
                <mxCell id="97" value="quid&lt;br&gt;quickly &amp;lt; quid &amp;lt; quiet" style="rounded=1;whiteSpace=wrap;html=1;fontSize=16;fillColor=#8D91AA;fontColor=default;labelBackgroundColor=none;container=0;" vertex="1" parent="1">
                    <mxGeometry x="529.9966492146597" y="231" width="181.7068062827225" height="59" as="geometry"/>
                </mxCell>
                <mxCell id="98" value="quj&lt;br&gt;quilt &amp;lt; quj &amp;lt; quota" style="rounded=1;whiteSpace=wrap;html=1;fontSize=16;fillColor=#8D91AA;fontColor=default;labelBackgroundColor=none;container=0;" vertex="1" parent="1">
                    <mxGeometry x="529.9966492146597" y="312" width="181.7068062827225" height="59" as="geometry"/>
                </mxCell>
                <mxCell id="95" value="&lt;font color=&quot;#1a1a1a&quot; style=&quot;font-size: 24px;&quot;&gt;IndexBlock&lt;/font&gt;" style="text;html=1;strokeColor=none;fillColor=none;align=center;verticalAlign=middle;whiteSpace=wrap;rounded=0;" vertex="1" parent="1">
                    <mxGeometry x="556.3299999999999" y="60" width="129.04" height="34" as="geometry"/>
                </mxCell>
                <mxCell id="101" value="" style="endArrow=classic;html=1;fontSize=24;exitX=0;exitY=0.5;exitDx=0;exitDy=0;entryX=1;entryY=0.5;entryDx=0;entryDy=0;strokeWidth=4;strokeColor=#5E5D65;" edge="1" parent="1" source="90" target="80">
                    <mxGeometry width="50" height="50" relative="1" as="geometry">
                        <mxPoint x="420.7934554973822" y="616.5" as="sourcePoint"/>
                        <mxPoint x="433.9816753926701" y="270.5" as="targetPoint"/>
                    </mxGeometry>
                </mxCell>
                <mxCell id="105" value="" style="edgeStyle=none;html=1;strokeColor=#5E5D65;strokeWidth=4;fontSize=24;" edge="1" parent="1" source="97" target="92">
                    <mxGeometry relative="1" as="geometry"/>
                </mxCell>
                <mxCell id="106" value="" style="edgeStyle=none;html=1;strokeColor=#5E5D65;strokeWidth=4;fontSize=24;entryX=1;entryY=0.5;entryDx=0;entryDy=0;" edge="1" parent="1" source="98" target="93">
                    <mxGeometry relative="1" as="geometry"/>
                </mxCell>
            </root>
        </mxGraphModel>
    </diagram>
</mxfile>